<svg width="35" height="35" viewBox="0 0 35 35" fill="none" xmlns="http://www.w3.org/2000/svg">
<mask id="mask0_2805_319" style="mask-type:alpha" maskUnits="userSpaceOnUse" x="0" y="0" width="35" height="35">
<rect width="35" height="35" fill="#D9D9D9"/>
</mask>
<g mask="url(#mask0_2805_319)">
<path d="M23.4793 19.3958L21.3647 17.2812C21.5835 16.1389 21.2554 15.0694 20.3804 14.0729C19.5054 13.0764 18.3752 12.6875 16.9897 12.9062L14.8752 10.7916C15.2884 10.5972 15.7074 10.4514 16.1322 10.3541C16.5581 10.2569 17.0141 10.2083 17.5002 10.2083C19.3231 10.2083 20.8728 10.8461 22.1493 12.1216C23.4249 13.3982 24.0627 14.9479 24.0627 16.7708C24.0627 17.2569 24.014 17.7129 23.9168 18.1387C23.8196 18.5636 23.6738 18.9826 23.4793 19.3958ZM28.146 23.9896L26.0314 21.9479C26.955 21.243 27.7756 20.4711 28.4931 19.6321C29.2096 18.794 29.8231 17.8403 30.3335 16.7708C29.1182 14.316 27.3741 12.3652 25.101 10.9185C22.8289 9.47283 20.2953 8.74998 17.5002 8.74998C16.7953 8.74998 16.1026 8.79859 15.422 8.89581C14.7415 8.99304 14.0731 9.13887 13.4168 9.33331L11.1564 7.0729C12.1529 6.6597 13.1738 6.34956 14.2189 6.14248C15.2641 5.93637 16.3578 5.83331 17.5002 5.83331C21.1703 5.83331 24.4394 6.84783 27.3075 8.87685C30.1755 10.9069 32.2536 13.5382 33.5418 16.7708C32.9828 18.2048 32.2478 19.5358 31.3368 20.7637C30.4249 21.9907 29.3613 23.066 28.146 23.9896ZM28.8752 32.9583L22.7502 26.9062C21.8995 27.1736 21.0429 27.3744 20.1806 27.5085C19.3172 27.6417 18.4238 27.7083 17.5002 27.7083C13.83 27.7083 10.5609 26.6938 7.69287 24.6648C4.82482 22.6348 2.74669 20.0035 1.4585 16.7708C1.96891 15.4826 2.61301 14.2853 3.39079 13.1789C4.16857 12.0735 5.05572 11.0833 6.05225 10.2083L2.04183 6.12498L4.0835 4.08331L30.9168 30.9166L28.8752 32.9583ZM8.09391 12.25C7.38905 12.8819 6.74495 13.5746 6.16162 14.3281C5.57829 15.0816 5.08002 15.8958 4.66683 16.7708C5.88211 19.2257 7.62579 21.176 9.89787 22.6216C12.1709 24.0683 14.705 24.7916 17.5002 24.7916C17.9863 24.7916 18.4602 24.7615 18.922 24.7012C19.3838 24.64 19.8578 24.5729 20.3439 24.5L19.0314 23.1146C18.7641 23.1875 18.5088 23.2419 18.2658 23.2779C18.0227 23.3148 17.7675 23.3333 17.5002 23.3333C15.6772 23.3333 14.1275 22.6955 12.851 21.42C11.5754 20.1435 10.9377 18.5937 10.9377 16.7708C10.9377 16.5035 10.9556 16.2482 10.9916 16.0052C11.0286 15.7621 11.0835 15.5069 11.1564 15.2396L8.09391 12.25Z" fill="#5D6A69"/>
</g>
</svg>
