<svg width="35" height="35" viewBox="0 0 35 35" fill="none" xmlns="http://www.w3.org/2000/svg">
<mask id="mask0_2805_482" style="mask-type:alpha" maskUnits="userSpaceOnUse" x="0" y="0" width="35" height="35">
<rect width="35" height="35" fill="#D9D9D9"/>
</mask>
<g mask="url(#mask0_2805_482)">
<path d="M17.4999 23.3333C19.3228 23.3333 20.8726 22.6955 22.1491 21.42C23.4246 20.1435 24.0624 18.5937 24.0624 16.7708C24.0624 14.9479 23.4246 13.3982 22.1491 12.1216C20.8726 10.8461 19.3228 10.2083 17.4999 10.2083C15.677 10.2083 14.1273 10.8461 12.8508 12.1216C11.5752 13.3982 10.9374 14.9479 10.9374 16.7708C10.9374 18.5937 11.5752 20.1435 12.8508 21.42C14.1273 22.6955 15.677 23.3333 17.4999 23.3333ZM17.4999 20.7083C16.4062 20.7083 15.4767 20.3253 14.7116 19.5591C13.9455 18.794 13.5624 17.8646 13.5624 16.7708C13.5624 15.6771 13.9455 14.7471 14.7116 13.981C15.4767 13.2159 16.4062 12.8333 17.4999 12.8333C18.5937 12.8333 19.5236 13.2159 20.2897 13.981C21.0548 14.7471 21.4374 15.6771 21.4374 16.7708C21.4374 17.8646 21.0548 18.794 20.2897 19.5591C19.5236 20.3253 18.5937 20.7083 17.4999 20.7083ZM17.4999 27.7083C13.9513 27.7083 10.7187 26.7176 7.802 24.7362C4.88533 22.7558 2.77075 20.1007 1.45825 16.7708C2.77075 13.441 4.88533 10.7853 7.802 8.80394C10.7187 6.82352 13.9513 5.83331 17.4999 5.83331C21.0485 5.83331 24.2812 6.82352 27.1978 8.80394C30.1145 10.7853 32.2291 13.441 33.5416 16.7708C32.2291 20.1007 30.1145 22.7558 27.1978 24.7362C24.2812 26.7176 21.0485 27.7083 17.4999 27.7083ZM17.4999 24.7916C20.2464 24.7916 22.7684 24.0683 25.0658 22.6216C27.3621 21.176 29.118 19.2257 30.3333 16.7708C29.118 14.316 27.3621 12.3652 25.0658 10.9185C22.7684 9.47283 20.2464 8.74998 17.4999 8.74998C14.7534 8.74998 12.2314 9.47283 9.93408 10.9185C7.6377 12.3652 5.88186 14.316 4.66659 16.7708C5.88186 19.2257 7.6377 21.176 9.93408 22.6216C12.2314 24.0683 14.7534 24.7916 17.4999 24.7916Z" fill="#5D6A69"/>
</g>
</svg>
